<svg width="20" height="20" viewBox="0 0 20 20" fill="none" xmlns="http://www.w3.org/2000/svg">
<g clip-path="url(#clip0_822_190)">
<path d="M4 8C6.20914 8 8 6.20914 8 4C8 1.79086 6.20914 0 4 0C1.79086 0 0 1.79086 0 4C0 6.20914 1.79086 8 4 8Z" fill="white"/>
<path d="M16 8C18.2091 8 20 6.20914 20 4C20 1.79086 18.2091 0 16 0C13.7909 0 12 1.79086 12 4C12 6.20914 13.7909 8 16 8Z" fill="white"/>
<path d="M16 20C18.2091 20 20 18.2091 20 16C20 13.7909 18.2091 12 16 12C13.7909 12 12 13.7909 12 16C12 18.2091 13.7909 20 16 20Z" fill="white"/>
<path d="M4 20C6.20914 20 8 18.2091 8 16C8 13.7909 6.20914 12 4 12C1.79086 12 0 13.7909 0 16C0 18.2091 1.79086 20 4 20Z" fill="white"/>
</g>
<defs>
<clipPath id="clip0_822_190">
<rect width="20" height="20" fill="white"/>
</clipPath>
</defs>
</svg>
